# xmcd
#
# Track frame offsets: 
#        150
#        16543
#        30438
#        45218
#        58381
#        72185
#        86089
#        98461
#        113040
#        130070
#        142614
#        157672
#        173795
#        188465
#        203254
#        221512
#        235374
#        252513
#
# Disc length: 3572 seconds
#
# Revision: 1
# Processed by: cddbd v1.5.2PL0 Copyright (c) Steve Scherf et al.
# Submitted via: ExactAudioCopy v1.3
#
DISCID=d30df212
DTITLE=Garotos de Ouro - De Alma Campeira
DYEAR=2016
DGENRE=Gaúcha
TTITLE0=No Barulho do Meu Relho
TTITLE1=E Vai Ser Lá Que Eu Vou Bailar
TTITLE2=Nos Bolichos de Campanha
TTITLE3=Quando a Saudade Vem
TTITLE4=Na Curva do Rio
TTITLE5=Mulherada Quer Mexer
TTITLE6=De Alma Campeira
TTITLE7=Mulher aa Minha Vida
TTITLE8=Coração Carente
TTITLE9=Quando A Farra Pega Fogo
TTITLE10=Vida Sovada
TTITLE11=Poema e Coração
TTITLE12=Sou Queixo Duro
TTITLE13=As Prenda Pira
TTITLE14=Berço Grande dos Gaúchos
TTITLE15=Chinelada
TTITLE16=Eu Sei Que Sou Bagual
TTITLE17=Nós (Banda Gedeó "O Furacão")
EXTD=
EXTT0=
EXTT1=
EXTT2=
EXTT3=
EXTT4=
EXTT5=
EXTT6=
EXTT7=
EXTT8=
EXTT9=
EXTT10=
EXTT11=
EXTT12=
EXTT13=
EXTT14=
EXTT15=
EXTT16=
EXTT17=
PLAYORDER=
